<?xml version="1.0" encoding="UTF-8"?>
<svg id="a" xmlns="http://www.w3.org/2000/svg" version="1.1" viewBox="0 0 234.35 237.35">
  <!-- Generator: Adobe Illustrator 29.8.2, SVG Export Plug-In . SVG Version: 2.1.1 Build 3)  -->
  <defs>
    
  </defs>
  <polygon stroke="currentColor" stroke-width="5" stroke-linecap="round" stroke-linejoin="round" fill="none" class="st0" points="174.27 3.56 117.15 36.61 145.71 53.09 174.1 36.77 202.82 53.09 202.74 85.89 117.39 135.18 88.67 118.78 88.75 151.58 117.39 168.14 231.26 102.21 231.02 36.73 174.27 3.56"/>
  <polygon stroke="currentColor" stroke-width="5" stroke-linecap="round" stroke-linejoin="round" fill="none" class="st0" points="3.09 102.4 60.26 135.35 60.26 102.37 31.93 85.94 31.7 52.91 60.15 36.58 145.51 85.85 145.66 118.92 174.03 102.45 174.05 69.37 60.02 3.72 3.44 36.67 3.09 102.4"/>
  <polygon stroke="currentColor" stroke-width="5" stroke-linecap="round" stroke-linejoin="round" fill="none" class="st0" points="174.23 201.24 174.17 135.26 145.62 151.75 145.55 184.5 117.06 201.21 88.69 184.74 88.68 86.18 117.25 69.51 88.8 53.18 60.13 69.7 60.3 201.28 117.13 233.81 174.23 201.24"/>
</svg>