<?xml version="1.0" encoding="UTF-8"?>
<svg id="a" xmlns="http://www.w3.org/2000/svg" viewBox="0 0 57.45 55.56">
  <defs>
    <style>
      .cls-1 {
        fill: #2563eb;
      }

      .cls-2 {
        fill: #fff;
        stroke: #221f1f;
        stroke-miterlimit: 10;
        stroke-width: 1.94px;
      }
    </style>
  </defs>
  <rect class="cls-1" width="57.45" height="55.56" rx="3.25" ry="3.25"/>
  <g>
    <polygon class="cls-2" points="38.34 8.4 28.72 13.96 33.53 16.74 38.31 13.99 43.15 16.74 43.13 22.26 28.76 30.56 23.93 27.8 23.94 33.32 28.76 36.11 47.94 25.01 47.9 13.98 38.34 8.4"/>
    <polygon class="cls-2" points="9.52 25.04 19.14 30.59 19.14 25.03 14.37 22.27 14.33 16.71 19.13 13.96 33.5 22.25 33.52 27.82 38.3 25.05 38.3 19.48 19.1 8.42 9.58 13.97 9.52 25.04"/>
    <polygon class="cls-2" points="38.33 41.68 38.33 30.57 33.52 33.35 33.5 38.86 28.71 41.68 23.93 38.91 23.93 22.31 28.74 19.5 23.95 16.75 19.12 19.53 19.15 41.69 28.72 47.17 38.33 41.68"/>
  </g>
</svg>