<?xml version="1.0" encoding="UTF-8"?>
<svg id="a" xmlns="http://www.w3.org/2000/svg" version="1.1" viewBox="0 0 754.66 553.4">
  <!-- Generator: Adobe Illustrator 30.0.0, SVG Export Plug-In . SVG Version: 2.1.1 Build 123)  -->
  <defs>
    <style>
      .st0 {
        stroke: #6d6e71;
        stroke-width: 2px;
      }

      .st0, .st1, .st2, .st3, .st4, .st5, .st6, .st7 {
        stroke-miterlimit: 10;
      }

      .st0, .st7 {
        fill: #fff;
      }

      .st8 {
        letter-spacing: .02em;
      }

      .st8, .st9, .st10, .st11, .st12, .st13, .st14, .st15, .st16 {
        isolation: isolate;
      }

      .st8, .st11, .st12, .st13 {
        font-family: HelveticaNeue, 'Helvetica Neue';
        font-size: 16px;
      }

      .st8, .st11, .st12, .st13, .st17, .st16 {
        fill: #0d0d0e;
      }

      .st1 {
        stroke-dasharray: 15.32 15.32;
      }

      .st1, .st2, .st3, .st4, .st5, .st6 {
        stroke: #2563eb;
      }

      .st1, .st3, .st4, .st5, .st6 {
        fill: none;
        stroke-width: 3px;
      }

      .st9 {
        letter-spacing: -.02em;
      }

      .st9, .st10, .st18, .st15 {
        fill: #231f20;
      }

      .st9, .st10, .st15, .st16 {
        font-family: HelveticaNeue-Bold, 'Helvetica Neue';
        font-size: 18.49px;
        font-weight: 700;
      }

      .st10 {
        letter-spacing: -.02em;
      }

      .st12 {
        letter-spacing: -.07em;
      }

      .st13 {
        letter-spacing: -.02em;
      }

      .st2 {
        fill: #4366b0;
      }

      .st3 {
        stroke-dasharray: 15.91 15.91;
      }

      .st19 {
        fill: #2563eb;
      }

      .st4 {
        stroke-dasharray: 16.03 16.03;
      }

      .st5 {
        stroke-dasharray: 14.85 14.85;
      }

      .st6 {
        stroke-dasharray: 9.49 9.49;
      }

      .st7 {
        stroke: #221f1f;
        stroke-width: 3.62px;
      }
    </style>
  </defs>
  <rect class="st0" x="85.19" y="1.5" width="225.08" height="118.08" rx="18.58" ry="18.58"/>
  <g>
    <path class="st18" d="M106.36,28.83v-8.39h-3.25v-1.98c.46.01.9-.02,1.32-.1.43-.08.81-.22,1.15-.42.34-.2.62-.47.86-.8.23-.33.39-.75.46-1.24h2.09v12.94h-2.63Z"/>
    <path class="st18" d="M116.03,25.98v2.85h-2.9v-2.85h2.9Z"/>
    <path class="st18" d="M132.1,15.63c.83,0,1.53.12,2.11.36s1.05.56,1.41.95c.36.4.63.84.79,1.35.17.5.25,1.03.25,1.57s-.08,1.05-.25,1.56-.43.96-.79,1.36c-.36.4-.84.71-1.41.95s-1.28.36-2.11.36h-3.05v4.73h-2.9v-13.2h5.95ZM131.31,21.84c.33,0,.65-.02.96-.07s.58-.15.81-.29c.23-.14.42-.34.56-.6s.21-.6.21-1.02-.07-.76-.21-1.02-.33-.46-.56-.6-.51-.24-.81-.29c-.31-.05-.63-.07-.96-.07h-2.26v3.96s2.26,0,2.26,0Z"/>
    <path class="st18" d="M138.09,22.21c.04-.62.19-1.13.46-1.53.27-.41.62-.73,1.04-.98s.89-.42,1.41-.53c.52-.1,1.05-.16,1.58-.16.48,0,.97.03,1.46.1s.94.2,1.35.4.74.47,1,.82.39.82.39,1.4v4.97c0,.43.02.84.07,1.24s.13.69.26.89h-2.66c-.05-.15-.09-.3-.12-.45-.03-.15-.05-.31-.06-.47-.42.43-.91.73-1.48.91s-1.15.26-1.74.26c-.46,0-.88-.06-1.27-.17-.4-.11-.74-.28-1.04-.52-.3-.23-.53-.53-.69-.89-.17-.36-.25-.78-.25-1.27,0-.54.1-.99.29-1.34.19-.35.44-.63.74-.84.3-.21.65-.37,1.04-.47.39-.1.78-.19,1.17-.25s.78-.11,1.16-.15c.38-.04.72-.09,1.02-.17.3-.07.53-.18.7-.32s.25-.35.24-.62c0-.28-.05-.51-.14-.67s-.22-.3-.37-.39-.33-.15-.54-.18c-.2-.03-.42-.05-.66-.05-.52,0-.92.11-1.22.33s-.47.59-.52,1.11h-2.63,0ZM144.16,24.15c-.11.1-.25.18-.42.23-.17.06-.35.1-.54.14s-.39.07-.6.09-.42.06-.63.09c-.2.04-.39.09-.58.15s-.36.15-.5.25-.26.24-.34.4-.13.36-.13.61c0,.23.04.43.13.59.09.16.2.29.35.38.15.09.32.16.52.19.2.04.4.06.61.06.52,0,.92-.09,1.2-.26s.49-.38.63-.62c.13-.24.22-.48.25-.73s.05-.44.05-.59v-.98h0Z"/>
    <path class="st18" d="M151.02,26.45c.12.2.27.37.45.5s.4.23.64.29c.24.06.49.09.75.09.18,0,.38-.02.58-.06.2-.04.39-.11.55-.2.17-.09.3-.22.42-.37.11-.15.17-.35.17-.58,0-.4-.26-.69-.79-.89s-1.25-.4-2.19-.59c-.38-.09-.76-.19-1.12-.31-.36-.12-.69-.27-.97-.46-.28-.19-.51-.43-.68-.72-.17-.29-.26-.64-.26-1.06,0-.62.12-1.12.36-1.52.24-.39.56-.7.95-.93s.84-.39,1.33-.48,1-.14,1.52-.14,1.02.05,1.51.15c.49.1.92.26,1.3.5.38.23.7.55.95.93s.4.88.45,1.47h-2.5c-.04-.5-.23-.85-.57-1.03-.35-.18-.75-.27-1.22-.27-.15,0-.31,0-.48.03-.17.02-.33.06-.47.12s-.26.15-.36.27-.15.27-.15.47c0,.23.09.42.26.57s.4.27.68.36.59.18.95.25.72.15,1.09.24c.38.09.76.19,1.12.31.36.12.69.29.97.49s.51.46.68.76c.17.3.26.67.26,1.12,0,.63-.13,1.16-.38,1.58s-.58.77-.99,1.03-.87.44-1.4.55-1.06.16-1.6.16-1.1-.06-1.63-.17-1-.3-1.41-.55-.75-.6-1.02-1.03c-.26-.42-.41-.96-.43-1.6h2.5c0,.28.06.53.18.73h0Z"/>
    <path class="st18" d="M163.99,19.27v1.76h-1.92v4.73c0,.44.07.74.22.89s.44.22.89.22c.15,0,.29,0,.43-.02.13-.01.26-.03.39-.06v2.03c-.22.04-.47.06-.74.07s-.54.02-.79.02c-.41,0-.79-.03-1.15-.08-.36-.06-.68-.16-.96-.32-.28-.16-.5-.39-.66-.68s-.24-.68-.24-1.17v-5.64h-1.59v-1.76h1.59v-2.86h2.62v2.86h1.92,0Z"/>
    <path class="st18" d="M168.06,26.54c.39.38.96.57,1.7.57.53,0,.99-.13,1.37-.4s.62-.55.7-.84h2.31c-.37,1.15-.94,1.97-1.7,2.46-.76.49-1.69.74-2.77.74-.75,0-1.43-.12-2.03-.36s-1.12-.58-1.53-1.03c-.42-.44-.74-.97-.97-1.59s-.34-1.29-.34-2.03.12-1.38.35-2c.23-.62.57-1.15,1-1.6s.95-.8,1.54-1.06c.6-.26,1.26-.39,1.99-.39.81,0,1.52.16,2.13.47.6.31,1.1.74,1.49,1.27s.67,1.13.84,1.81.23,1.39.18,2.13h-6.9c.04.85.25,1.47.65,1.85h0ZM171.02,21.51c-.31-.34-.79-.52-1.43-.52-.42,0-.77.07-1.04.21s-.5.32-.67.53-.28.43-.35.67c-.07.23-.11.44-.12.63h4.27c-.12-.67-.34-1.17-.66-1.52h0Z"/>
    <path class="st18" d="M181.05,21.98c.23-.62.57-1.15,1-1.59s.95-.78,1.55-1.02,1.28-.36,2.03-.36,1.43.12,2.04.36,1.13.58,1.56,1.02.76.97,1,1.59c.23.62.35,1.32.35,2.08s-.12,1.45-.35,2.07c-.23.62-.57,1.14-1,1.58s-.95.77-1.56,1.01-1.29.35-2.04.35-1.43-.12-2.03-.35-1.12-.57-1.55-1.01c-.43-.44-.76-.96-1-1.58-.23-.62-.35-1.31-.35-2.07s.12-1.46.35-2.08ZM183.44,25.18c.07.36.2.69.38.98.18.29.42.52.71.69.3.17.67.26,1.11.26s.82-.09,1.12-.26c.3-.17.54-.4.72-.69.18-.29.3-.62.38-.98.07-.36.11-.74.11-1.12s-.04-.76-.11-1.13c-.07-.37-.2-.7-.38-.98-.18-.28-.42-.51-.72-.69s-.68-.27-1.12-.27-.81.09-1.11.27-.53.41-.71.69c-.18.28-.3.61-.38.98-.07.37-.11.75-.11,1.13s.04.75.11,1.12Z"/>
    <path class="st18" d="M194.79,19.27v1.33h.06c.33-.56.76-.96,1.29-1.21.53-.25,1.07-.38,1.63-.38.7,0,1.28.1,1.73.29s.8.46,1.06.8.44.75.54,1.24c.1.49.16,1.03.16,1.62v5.88h-2.62v-5.4c0-.79-.12-1.38-.37-1.76s-.68-.58-1.31-.58c-.71,0-1.23.21-1.55.64-.32.42-.48,1.12-.48,2.1v5.01h-2.62v-9.56h2.5l-.02-.02Z"/>
    <path class="st18" d="M206.06,26.54c.39.38.96.57,1.7.57.53,0,.99-.13,1.37-.4s.62-.55.7-.84h2.31c-.37,1.15-.94,1.97-1.7,2.46-.76.49-1.69.74-2.77.74-.75,0-1.43-.12-2.03-.36s-1.12-.58-1.53-1.03c-.42-.44-.74-.97-.97-1.59s-.34-1.29-.34-2.03.12-1.38.35-2c.23-.62.57-1.15,1-1.6s.95-.8,1.54-1.06c.6-.26,1.26-.39,1.99-.39.81,0,1.52.16,2.13.47.6.31,1.1.74,1.49,1.27s.67,1.13.84,1.81.23,1.39.18,2.13h-6.9c.04.85.25,1.47.65,1.85h0ZM209.03,21.51c-.31-.34-.79-.52-1.43-.52-.42,0-.77.07-1.04.21s-.5.32-.67.53-.28.43-.35.67c-.07.23-.11.44-.12.63h4.27c-.12-.67-.34-1.17-.66-1.52h0Z"/>
    <path class="st18" d="M221.21,26.45c.12.2.27.37.45.5s.4.23.64.29c.24.06.49.09.75.09.18,0,.38-.02.58-.06.2-.04.39-.11.55-.2.17-.09.3-.22.42-.37.11-.15.17-.35.17-.58,0-.4-.26-.69-.79-.89s-1.25-.4-2.19-.59c-.38-.09-.76-.19-1.12-.31-.36-.12-.69-.27-.97-.46-.28-.19-.51-.43-.68-.72-.17-.29-.26-.64-.26-1.06,0-.62.12-1.12.36-1.52.24-.39.56-.7.95-.93s.84-.39,1.33-.48,1-.14,1.52-.14,1.02.05,1.51.15c.49.1.92.26,1.3.5.38.23.7.55.95.93s.4.88.45,1.47h-2.5c-.04-.5-.23-.85-.57-1.03-.35-.18-.75-.27-1.22-.27-.15,0-.31,0-.48.03-.17.02-.33.06-.47.12s-.26.15-.36.27-.15.27-.15.47c0,.23.09.42.26.57s.4.27.68.36.59.18.95.25.72.15,1.09.24c.38.09.76.19,1.12.31.36.12.69.29.97.49s.51.46.68.76c.17.3.26.67.26,1.12,0,.63-.13,1.16-.38,1.58s-.58.77-.99,1.03-.87.44-1.4.55-1.06.16-1.6.16-1.1-.06-1.63-.17-1-.3-1.41-.55-.75-.6-1.02-1.03c-.26-.42-.41-.96-.43-1.6h2.5c0,.28.06.53.18.73h0Z"/>
    <path class="st18" d="M231.42,19.27v1.33h.06c.33-.56.76-.96,1.29-1.21.53-.25,1.07-.38,1.63-.38.7,0,1.28.1,1.73.29s.8.46,1.06.8.44.75.54,1.24c.1.49.16,1.03.16,1.62v5.88h-2.62v-5.4c0-.79-.12-1.38-.37-1.76s-.68-.58-1.31-.58c-.71,0-1.23.21-1.55.64-.32.42-.48,1.12-.48,2.1v5.01h-2.62v-9.56h2.5l-.02-.02Z"/>
    <path class="st18" d="M239.96,17.8v-2.16h2.62v2.16h-2.62ZM242.59,19.27v9.56h-2.62v-9.56h2.62Z"/>
    <path class="st18" d="M247.15,19.27v1.22h.04c.32-.52.73-.89,1.22-1.13.49-.23,1.04-.35,1.63-.35.75,0,1.4.14,1.94.42.54.28.99.66,1.35,1.13s.62,1.01.79,1.64c.17.62.26,1.27.26,1.95,0,.64-.09,1.26-.26,1.85s-.43,1.11-.79,1.57c-.35.46-.79.82-1.31,1.09s-1.14.41-1.84.41c-.59,0-1.14-.12-1.64-.36s-.91-.59-1.23-1.06h-.04v4.53h-2.62v-12.9h2.5,0ZM250.57,26.85c.29-.17.52-.4.7-.67.18-.28.3-.6.38-.97.07-.37.11-.75.11-1.13s-.04-.76-.12-1.13c-.08-.37-.21-.7-.4-.99-.18-.29-.42-.52-.71-.7-.29-.18-.64-.27-1.06-.27s-.79.09-1.08.27c-.29.18-.52.41-.7.69s-.3.61-.38.98-.11.75-.11,1.15.04.76.12,1.13.21.69.39.97.42.5.71.67c.29.17.65.26,1.07.26s.79-.09,1.08-.26h0Z"/>
    <path class="st18" d="M258.45,19.27v1.22h.04c.32-.52.73-.89,1.22-1.13.49-.23,1.04-.35,1.63-.35.75,0,1.4.14,1.94.42s.99.66,1.35,1.13c.36.47.62,1.01.8,1.64.17.62.26,1.27.26,1.95,0,.64-.09,1.26-.26,1.85s-.43,1.11-.79,1.57c-.35.46-.79.82-1.31,1.09s-1.14.41-1.84.41c-.59,0-1.14-.12-1.64-.36s-.91-.59-1.23-1.06h-.04v4.53h-2.62v-12.9h2.5,0ZM261.86,26.85c.29-.17.52-.4.7-.67.18-.28.3-.6.38-.97.07-.37.11-.75.11-1.13s-.04-.76-.12-1.13c-.08-.37-.21-.7-.4-.99-.18-.29-.42-.52-.71-.7-.29-.18-.64-.27-1.06-.27s-.79.09-1.08.27c-.29.18-.52.41-.7.69-.18.28-.3.61-.38.98s-.11.75-.11,1.15.04.76.12,1.13.21.69.39.97.42.5.71.67c.3.17.65.26,1.07.26s.79-.09,1.08-.26h0Z"/>
    <path class="st18" d="M270.06,26.54c.39.38.96.57,1.7.57.53,0,.99-.13,1.37-.4.38-.26.62-.55.7-.84h2.31c-.37,1.15-.94,1.97-1.7,2.46-.76.49-1.69.74-2.77.74-.75,0-1.43-.12-2.03-.36s-1.11-.58-1.53-1.03c-.42-.44-.74-.97-.97-1.59s-.34-1.29-.34-2.03.12-1.38.35-2,.57-1.15,1-1.6.95-.8,1.54-1.06c.6-.26,1.26-.39,1.99-.39.81,0,1.52.16,2.13.47.6.31,1.1.74,1.49,1.27s.67,1.13.84,1.81c.17.68.23,1.39.18,2.13h-6.89c.04.85.25,1.47.65,1.85,0,0-.02,0-.02,0ZM273.02,21.51c-.31-.34-.79-.52-1.43-.52-.42,0-.77.07-1.04.21s-.5.32-.67.53-.28.43-.35.67c-.07.23-.11.44-.12.63h4.27c-.12-.67-.34-1.17-.66-1.52h0Z"/>
    <path class="st18" d="M283.11,19.27v1.76h-1.92v4.73c0,.44.07.74.22.89s.44.22.89.22c.15,0,.29,0,.42-.02.14-.01.27-.03.39-.06v2.03c-.22.04-.47.06-.74.07s-.54.02-.8.02c-.41,0-.79-.03-1.15-.08-.36-.06-.68-.16-.96-.32s-.5-.39-.66-.68-.24-.68-.24-1.17v-5.64h-1.59v-1.76h1.59v-2.86h2.62v2.86h1.93,0Z"/>
    <path class="st17" d="M107.77,55.62l4.46,11.42h-1.68l-1.25-3.44h-4.83l-1.28,3.44h-1.55l4.45-11.42s1.68,0,1.68,0ZM108.82,62.32l-1.9-5.33h-.03l-1.94,5.33h3.87Z"/>
    <path class="st17" d="M119.16,67.04v-1.12h-.03c-.22.46-.58.79-1.06.99-.48.2-1.01.3-1.58.3-.64,0-1.2-.12-1.67-.35s-.87-.55-1.18-.94-.55-.85-.71-1.38c-.16-.52-.24-1.08-.24-1.66s.08-1.14.23-1.66.39-.98.7-1.37.71-.7,1.18-.93,1.03-.34,1.66-.34c.21,0,.44.02.69.06s.49.12.74.22c.25.1.48.24.7.4.22.17.4.37.55.62h.03v-4.26h1.36v11.42h-1.37ZM114.27,64.11c.1.37.26.7.46.98s.47.52.8.69c.32.17.71.26,1.14.26s.85-.09,1.17-.27.58-.42.78-.71.35-.63.44-1c.09-.37.14-.75.14-1.14s-.05-.8-.14-1.18c-.1-.38-.25-.71-.46-1s-.48-.52-.81-.7-.73-.26-1.2-.26-.85.09-1.17.27-.58.42-.77.72c-.19.3-.33.64-.42,1.02s-.13.78-.13,1.18.05.76.15,1.13h.02,0Z"/>
    <path class="st17" d="M128.65,67.04v-1.12h-.03c-.22.46-.58.79-1.06.99-.48.2-1.01.3-1.58.3-.64,0-1.2-.12-1.67-.35s-.87-.55-1.18-.94-.55-.85-.71-1.38c-.16-.52-.24-1.08-.24-1.66s.08-1.14.23-1.66.39-.98.7-1.37.71-.7,1.18-.93,1.03-.34,1.66-.34c.21,0,.44.02.69.06s.49.12.74.22c.25.1.48.24.7.4.22.17.4.37.55.62h.03v-4.26h1.36v11.42h-1.37ZM123.76,64.11c.1.37.26.7.46.98s.47.52.8.69c.32.17.71.26,1.14.26s.85-.09,1.17-.27.58-.42.78-.71.35-.63.44-1c.09-.37.14-.75.14-1.14s-.05-.8-.14-1.18c-.1-.38-.25-.71-.46-1-.21-.29-.48-.52-.81-.7s-.73-.26-1.2-.26-.85.09-1.17.27-.58.42-.77.72c-.19.3-.33.64-.42,1.02s-.13.78-.13,1.18.05.76.15,1.13h.02,0Z"/>
    <path class="st17" d="M143.88,67.01c-.24.14-.56.21-.98.21-.35,0-.63-.1-.84-.3s-.31-.52-.31-.97c-.37.45-.81.77-1.3.97s-1.03.3-1.61.3c-.37,0-.73-.04-1.06-.13-.34-.08-.63-.22-.87-.4-.25-.18-.44-.42-.58-.71s-.22-.65-.22-1.06c0-.47.08-.85.24-1.15.16-.3.37-.54.63-.73.26-.19.56-.33.9-.42s.68-.18,1.03-.24c.37-.08.73-.13,1.06-.17.34-.04.63-.09.89-.16s.46-.17.61-.3.22-.33.22-.58c0-.3-.06-.54-.17-.72s-.26-.32-.43-.42c-.18-.1-.37-.16-.59-.19s-.43-.05-.65-.05c-.58,0-1.06.11-1.44.33s-.59.63-.62,1.24h-1.36c.02-.51.13-.94.32-1.3s.45-.64.77-.86.69-.38,1.1-.47c.41-.1.85-.14,1.32-.14.37,0,.74.03,1.11.08s.7.16,1,.33c.3.17.54.4.72.69.18.3.27.69.27,1.17v4.25c0,.32.02.55.06.7s.16.22.38.22c.12,0,.26-.02.42-.06v1.06h0l-.02-.02h0ZM141.67,62.77c-.17.13-.4.22-.67.28-.28.06-.57.11-.87.14-.3.04-.61.08-.92.13s-.59.12-.83.23c-.25.11-.45.26-.6.45-.15.2-.23.46-.23.8,0,.22.04.41.14.57s.21.28.35.38.31.17.5.21.4.06.61.06c.45,0,.83-.06,1.15-.18s.58-.28.78-.46.35-.39.45-.61c.1-.22.14-.42.14-.61,0,0,0-1.39,0-1.39Z"/>
    <path class="st17" d="M150.63,65.2c.13.21.3.37.5.5s.44.21.7.26.53.08.81.08c.21,0,.44-.02.67-.05.23-.03.45-.09.65-.18s.36-.21.49-.38.19-.38.19-.63c0-.35-.13-.62-.4-.8-.27-.18-.6-.33-1-.44s-.84-.21-1.3-.3c-.47-.09-.9-.22-1.3-.38-.4-.17-.73-.4-1-.7s-.4-.72-.4-1.25c0-.42.09-.77.28-1.07s.43-.54.72-.73c.29-.19.62-.33.99-.42.37-.09.73-.14,1.1-.14.47,0,.9.04,1.3.12.4.08.74.22,1.05.42.3.2.55.46.73.8s.29.76.32,1.26h-1.36c-.02-.27-.09-.49-.21-.66-.12-.18-.27-.32-.45-.42-.18-.11-.38-.18-.6-.23s-.44-.07-.66-.07c-.2,0-.41.02-.62.05s-.4.09-.57.17c-.17.08-.31.19-.42.32s-.16.31-.16.52c0,.24.08.43.25.58s.38.28.63.38c.26.1.54.19.86.26s.64.14.96.22c.34.08.68.17,1,.27.32.11.61.25.86.42.25.18.45.4.61.66.15.27.23.6.23.99,0,.5-.1.92-.31,1.25s-.48.6-.82.8c-.34.2-.71.34-1.14.42s-.84.12-1.26.12c-.46,0-.9-.05-1.31-.14s-.78-.25-1.1-.47-.58-.51-.77-.86c-.19-.36-.3-.79-.32-1.3h1.36c0,.3.08.55.21.76h0Z"/>
    <path class="st17" d="M157.67,57.28v-1.66h1.36v1.66h-1.36ZM159.03,58.77v8.27h-1.36v-8.27h1.36Z"/>
    <path class="st17" d="M162.42,58.77v1.31h.03c.57-1,1.46-1.5,2.69-1.5.54,0,1,.08,1.36.22.36.15.66.36.88.62.22.27.38.58.47.95s.14.78.14,1.22v5.44h-1.36v-5.6c0-.51-.15-.92-.45-1.22-.3-.3-.71-.45-1.23-.45-.42,0-.78.06-1.08.19-.3.13-.56.31-.76.54s-.35.51-.46.82c-.1.31-.15.66-.15,1.03v4.67h-1.36v-8.27h1.28v.03h0Z"/>
    <path class="st17" d="M176.25,69.38c-.62.67-1.59,1.01-2.91,1.01-.38,0-.78-.04-1.18-.13s-.76-.22-1.09-.42c-.33-.19-.6-.44-.81-.75s-.33-.69-.35-1.14h1.36c0,.25.09.45.23.62.14.17.32.31.53.42.21.11.43.18.68.23s.48.07.7.07c.45,0,.83-.08,1.14-.23s.57-.37.77-.64.35-.6.44-.98c.09-.38.14-.81.14-1.26v-.54h-.03c-.24.51-.59.89-1.06,1.13-.48.24-.98.36-1.51.36-.62,0-1.16-.11-1.62-.34s-.84-.53-1.15-.9c-.31-.38-.54-.82-.7-1.33-.15-.51-.23-1.04-.23-1.61,0-.49.06-.99.19-1.51s.34-.99.64-1.41.69-.77,1.18-1.04,1.09-.41,1.81-.41c.52,0,1,.12,1.44.34s.78.57,1.02,1.03h.02v-1.18h1.28v7.57c0,1.35-.31,2.37-.93,3.04h0ZM174.51,65.66c.31-.19.57-.43.76-.74s.33-.65.42-1.03c.09-.38.14-.77.14-1.15,0-.36-.04-.72-.13-1.07s-.22-.67-.41-.95c-.19-.28-.43-.51-.73-.68-.3-.17-.66-.26-1.09-.26s-.81.08-1.12.25-.56.39-.76.66-.34.6-.43.96-.14.74-.14,1.14.04.75.11,1.12c.07.37.2.71.38,1.02s.42.55.72.74c.3.19.67.28,1.12.28s.83-.09,1.14-.28h.02,0Z"/>
    <path class="st17" d="M180.66,55.62v11.42h-1.36v-11.42s1.36,0,1.36,0Z"/>
    <path class="st17" d="M188.63,66.52c-.62.47-1.4.7-2.34.7-.66,0-1.24-.11-1.72-.32-.49-.21-.89-.51-1.22-.9-.33-.38-.58-.84-.74-1.38-.17-.53-.26-1.11-.28-1.74,0-.63.1-1.21.29-1.73.19-.52.46-.98.81-1.36s.76-.68,1.23-.9.99-.32,1.56-.32c.74,0,1.35.15,1.83.46s.88.69,1.17,1.16.5.98.61,1.54.16,1.08.14,1.58h-6.19c0,.36.03.71.13,1.03s.25.61.46.86.49.45.82.6.72.22,1.17.22c.58,0,1.05-.13,1.42-.4.37-.27.61-.67.73-1.22h1.34c-.18.93-.58,1.63-1.2,2.1h0l-.02.02h0ZM188.3,61.21c-.12-.29-.29-.54-.5-.74s-.45-.37-.74-.5c-.28-.12-.6-.18-.94-.18s-.67.06-.95.18-.52.29-.73.5c-.2.21-.36.46-.48.74-.12.28-.19.58-.21.9h4.75c-.02-.32-.09-.62-.22-.91h.02Z"/>
    <path class="st17" d="M196.86,65.2c.13.21.3.37.5.5s.44.21.7.26.53.08.81.08c.21,0,.44-.02.67-.05.23-.03.45-.09.65-.18s.36-.21.49-.38.19-.38.19-.63c0-.35-.13-.62-.4-.8-.27-.18-.6-.33-1-.44s-.84-.21-1.3-.3c-.47-.09-.9-.22-1.3-.38-.4-.17-.73-.4-1-.7s-.4-.72-.4-1.25c0-.42.09-.77.28-1.07s.43-.54.72-.73c.29-.19.62-.33.99-.42.37-.09.73-.14,1.1-.14.47,0,.9.04,1.3.12.4.08.74.22,1.05.42.3.2.55.46.73.8s.29.76.32,1.26h-1.36c-.02-.27-.09-.49-.21-.66-.12-.18-.27-.32-.45-.42-.18-.11-.38-.18-.6-.23s-.44-.07-.66-.07c-.2,0-.41.02-.62.05s-.4.09-.57.17c-.17.08-.31.19-.42.32s-.16.31-.16.52c0,.24.08.43.25.58s.38.28.63.38c.26.1.54.19.86.26s.64.14.96.22c.34.08.68.17,1,.27.32.11.61.25.86.42.25.18.45.4.61.66.15.27.23.6.23.99,0,.5-.1.92-.31,1.25s-.48.6-.82.8c-.34.2-.71.34-1.14.42s-.84.12-1.26.12c-.46,0-.9-.05-1.31-.14s-.78-.25-1.1-.47-.58-.51-.77-.86c-.19-.36-.3-.79-.32-1.3h1.36c0,.3.08.55.21.76h0Z"/>
    <path class="st17" d="M205.1,58.77v1.31h.03c.57-1,1.46-1.5,2.69-1.5.54,0,1,.08,1.36.22.36.15.66.36.88.62.22.27.38.58.47.95s.14.78.14,1.22v5.44h-1.36v-5.6c0-.51-.15-.92-.45-1.22-.3-.3-.71-.45-1.23-.45-.42,0-.78.06-1.08.19-.3.13-.56.31-.76.54s-.35.51-.46.82c-.1.31-.15.66-.15,1.03v4.67h-1.36v-8.27h1.28v.03h0Z"/>
    <path class="st17" d="M212.79,57.28v-1.66h1.36v1.66h-1.36ZM214.15,58.77v8.27h-1.36v-8.27h1.36Z"/>
    <path class="st17" d="M217.67,58.77v1.12h.03c.22-.46.58-.79,1.06-1s1.01-.31,1.58-.31c.64,0,1.2.12,1.67.35.48.23.87.55,1.18.95s.55.86.71,1.38.24,1.08.24,1.66-.08,1.14-.23,1.66c-.15.52-.39.98-.7,1.37-.32.39-.71.7-1.18.92s-1.03.34-1.66.34c-.2,0-.43-.02-.68-.06s-.5-.11-.74-.21c-.25-.1-.48-.23-.7-.39-.22-.17-.4-.37-.55-.62h-.03v4.26h-1.36v-11.42h1.36,0ZM222.56,61.71c-.1-.37-.26-.7-.46-.98-.21-.29-.48-.52-.8-.69-.33-.17-.71-.26-1.14-.26-.46,0-.85.09-1.17.27-.32.18-.58.42-.78.71s-.35.63-.44,1-.14.75-.14,1.14c0,.41.05.8.14,1.18.1.38.25.71.46,1s.48.52.81.7.73.26,1.2.26.86-.09,1.18-.27c.31-.18.57-.42.76-.72.19-.3.33-.64.42-1.02.09-.38.13-.78.13-1.18s-.05-.76-.15-1.13h-.02,0Z"/>
    <path class="st17" d="M227.16,58.77v1.12h.03c.22-.46.58-.79,1.06-1s1.01-.31,1.58-.31c.64,0,1.2.12,1.67.35.48.23.87.55,1.18.95s.55.86.71,1.38.24,1.08.24,1.66-.08,1.14-.23,1.66c-.15.52-.39.98-.7,1.37-.32.39-.71.7-1.18.92s-1.03.34-1.66.34c-.2,0-.43-.02-.68-.06s-.5-.11-.74-.21c-.25-.1-.48-.23-.7-.39-.22-.17-.4-.37-.55-.62h-.03v4.26h-1.36v-11.42h1.36,0ZM232.05,61.71c-.1-.37-.26-.7-.46-.98-.21-.29-.48-.52-.8-.69-.33-.17-.71-.26-1.14-.26-.46,0-.85.09-1.17.27-.32.18-.58.42-.78.71s-.35.63-.44,1-.14.75-.14,1.14c0,.41.05.8.14,1.18.1.38.25.71.46,1s.48.52.81.7.73.26,1.2.26.86-.09,1.18-.27c.31-.18.57-.42.76-.72.19-.3.33-.64.42-1.02.09-.38.13-.78.13-1.18s-.05-.76-.15-1.13h-.02,0Z"/>
    <path class="st17" d="M241.1,66.52c-.62.47-1.4.7-2.34.7-.66,0-1.24-.11-1.72-.32-.49-.21-.89-.51-1.22-.9-.33-.38-.58-.84-.74-1.38-.17-.53-.26-1.11-.28-1.74,0-.63.1-1.21.29-1.73.19-.52.46-.98.81-1.36s.76-.68,1.23-.9.99-.32,1.56-.32c.74,0,1.35.15,1.83.46s.88.69,1.17,1.16.5.98.61,1.54.16,1.08.14,1.58h-6.19c0,.36.03.71.13,1.03s.25.61.46.86.49.45.82.6.72.22,1.17.22c.58,0,1.05-.13,1.42-.4.37-.27.61-.67.73-1.22h1.34c-.18.93-.58,1.63-1.2,2.1h0l-.02.02h0ZM240.77,61.21c-.12-.29-.29-.54-.5-.74s-.45-.37-.74-.5c-.28-.12-.6-.18-.94-.18s-.67.06-.95.18-.52.29-.73.5c-.2.21-.36.46-.48.74-.12.28-.19.58-.21.9h4.75c-.02-.32-.09-.62-.22-.91h.02Z"/>
    <path class="st17" d="M247.37,58.77v1.2h-1.65v5.14c0,.16,0,.29.04.38.03.1.08.17.15.22s.18.09.31.1.31.02.52.02h.62v1.2h-1.04c-.35,0-.65-.02-.9-.07s-.45-.14-.61-.26-.27-.31-.34-.54c-.07-.23-.11-.54-.11-.93v-5.26h-1.41v-1.2h1.41v-2.48h1.36v2.48h1.65Z"/>
    <path class="st17" d="M256.86,58.77v1.2h-1.65v5.14c0,.16,0,.29.04.38.03.1.08.17.15.22s.18.09.31.1.31.02.52.02h.62v1.2h-1.04c-.35,0-.65-.02-.9-.07s-.45-.14-.61-.26-.27-.31-.34-.54c-.07-.23-.11-.54-.11-.93v-5.26h-1.41v-1.2h1.41v-2.48h1.36v2.48h1.65Z"/>
    <path class="st17" d="M258.17,61.21c.17-.53.43-.99.77-1.38s.76-.7,1.26-.92,1.08-.34,1.73-.34,1.24.11,1.74.34.92.53,1.26.92.6.85.77,1.38c.17.53.26,1.1.26,1.7s-.08,1.17-.26,1.7c-.17.52-.43.98-.77,1.37s-.76.69-1.26.91-1.08.33-1.74.33-1.23-.11-1.73-.33-.92-.52-1.26-.91c-.34-.39-.6-.85-.77-1.37-.17-.52-.26-1.09-.26-1.7s.08-1.18.26-1.7ZM259.55,64.25c.13.39.32.71.55.98.23.26.51.46.82.6s.65.21,1,.21.69-.07,1-.21c.32-.14.59-.34.82-.6s.42-.59.55-.98c.13-.39.2-.83.2-1.34s-.07-.95-.2-1.34-.32-.72-.55-.98c-.23-.27-.51-.47-.82-.61s-.65-.21-1-.21-.68.07-1,.21c-.31.14-.59.34-.82.61s-.42.6-.55.98-.2.83-.2,1.34.07.95.2,1.34Z"/>
    <path class="st17" d="M106.01,87.35c-.16.4-.32.75-.47,1.02s-.32.5-.51.68-.39.31-.62.39-.49.12-.79.12c-.16,0-.32-.01-.48-.03s-.32-.06-.46-.11v-1.25c.12.05.25.1.41.14s.29.06.39.06c.28,0,.51-.07.7-.2.19-.13.33-.32.42-.57l.56-1.39-3.28-8.22h1.54l2.42,6.77h.03l2.32-6.77h1.44l-3.6,9.38h0s-.02-.02-.02-.02Z"/>
    <path class="st17" d="M110.57,80.41c.17-.53.43-.99.77-1.38s.76-.7,1.26-.92,1.08-.34,1.73-.34,1.24.11,1.74.34.92.53,1.26.92.6.85.77,1.38.26,1.1.26,1.7-.08,1.17-.26,1.7c-.17.52-.43.98-.77,1.37s-.76.69-1.26.91-1.07.33-1.74.33-1.23-.11-1.73-.33-.92-.52-1.26-.91c-.34-.39-.6-.85-.77-1.37-.17-.52-.26-1.09-.26-1.7s.08-1.18.26-1.7ZM111.95,83.45c.13.39.32.71.55.98.23.26.51.46.82.6.32.14.65.21,1,.21s.69-.07,1-.21c.32-.14.59-.34.82-.6s.42-.59.55-.98.2-.83.2-1.34-.07-.95-.2-1.34-.32-.72-.55-.98c-.24-.27-.51-.47-.82-.61s-.65-.21-1-.21-.68.07-1,.21c-.31.14-.59.34-.82.61-.24.27-.42.6-.55.98s-.2.83-.2,1.34.07.95.2,1.34Z"/>
    <path class="st17" d="M125.51,86.25v-1.31h-.03c-.29.51-.66.89-1.1,1.13-.45.24-.98.36-1.58.36-.54,0-1-.07-1.36-.22-.36-.14-.66-.35-.88-.62-.22-.27-.38-.58-.47-.95-.09-.37-.14-.78-.14-1.22v-5.44h1.36v5.6c0,.51.15.92.45,1.22.3.3.71.45,1.23.45.42,0,.78-.06,1.08-.19s.56-.31.76-.54c.2-.23.35-.51.46-.82.1-.31.15-.66.15-1.03v-4.67h1.36v8.27h-1.28v-.02h-.01Z"/>
    <path class="st17" d="M130.07,77.97v1.74h.03c.33-.67.74-1.17,1.22-1.49s1.09-.47,1.82-.45v1.44c-.54,0-1.01.07-1.39.22s-.69.37-.93.66c-.23.29-.4.64-.51,1.05s-.16.88-.16,1.42v3.68h-1.36v-8.27h1.28,0Z"/>
    <path class="st17" d="M139.66,84.4c.13.21.3.37.5.5.21.12.44.21.7.26s.53.08.81.08c.21,0,.44-.02.67-.05.23-.03.45-.09.65-.18.2-.08.36-.21.49-.38s.19-.38.19-.63c0-.35-.13-.62-.4-.8-.27-.18-.6-.33-1-.44s-.84-.21-1.3-.3c-.47-.09-.9-.22-1.3-.38s-.73-.4-1-.7c-.27-.3-.4-.71-.4-1.25,0-.42.09-.77.28-1.07s.43-.54.72-.73.62-.32.99-.42.73-.14,1.1-.14c.47,0,.9.04,1.3.12s.74.22,1.05.42.55.46.73.8c.18.34.29.75.32,1.26h-1.36c-.02-.27-.09-.49-.21-.66-.12-.18-.27-.32-.45-.42-.18-.11-.38-.18-.6-.23s-.44-.07-.66-.07c-.2,0-.41.02-.62.05s-.4.09-.57.17c-.17.08-.31.19-.42.32s-.16.31-.16.52c0,.23.08.43.25.58s.38.28.63.38c.26.1.54.19.86.26s.64.14.96.22c.34.07.68.17,1,.27s.61.25.86.42c.25.18.45.4.61.66.15.27.23.6.23.99,0,.5-.1.92-.31,1.25-.21.33-.48.6-.82.8-.34.2-.71.34-1.14.42s-.84.12-1.26.12c-.46,0-.9-.05-1.31-.14-.42-.1-.78-.25-1.1-.47s-.58-.51-.77-.86-.3-.79-.32-1.31h1.36c0,.3.08.55.21.76h0Z"/>
    <path class="st17" d="M146.7,76.49v-1.66h1.36v1.66h-1.36ZM148.06,77.97v8.27h-1.36v-8.27h1.36Z"/>
    <path class="st17" d="M153.71,77.97v1.2h-1.65v5.14c0,.16,0,.29.04.38.03.1.08.17.15.22.07.05.18.09.31.1s.31.02.52.02h.62v1.2h-1.04c-.35,0-.65-.02-.9-.07s-.45-.14-.61-.26-.27-.31-.34-.54c-.07-.23-.11-.54-.11-.93v-5.26h-1.41v-1.2h1.41v-2.48h1.36v2.48h1.65Z"/>
    <path class="st17" d="M161.07,85.72c-.62.47-1.4.7-2.34.7-.66,0-1.24-.11-1.72-.32-.49-.21-.89-.51-1.22-.9-.33-.38-.58-.84-.74-1.38s-.26-1.11-.28-1.74c0-.63.1-1.21.29-1.73.19-.52.46-.98.81-1.36s.76-.68,1.23-.9c.48-.21.99-.32,1.56-.32.74,0,1.35.15,1.83.46s.88.69,1.17,1.16.5.98.61,1.54.16,1.08.14,1.58h-6.19c0,.36.03.71.13,1.03.1.33.25.61.46.86s.49.45.82.6.72.22,1.17.22c.58,0,1.05-.13,1.42-.4.37-.27.61-.67.73-1.22h1.34c-.18.93-.58,1.63-1.2,2.1h0l-.02.02h0ZM160.74,80.4c-.12-.29-.29-.54-.5-.74s-.45-.37-.74-.5c-.28-.12-.6-.18-.94-.18s-.67.06-.95.18-.52.29-.73.5c-.2.21-.36.46-.48.74s-.19.58-.21.9h4.75c-.02-.32-.09-.62-.22-.91h.02Z"/>
    <path class="st17" d="M172.65,81.16v1.28h-4.62v-1.28h4.62Z"/>
    <path class="st17" d="M179,76.49v-1.66h1.36v1.66h-1.36ZM180.36,77.97v8.27h-1.36v-8.27h1.36Z"/>
    <path class="st17" d="M183.75,77.97v1.31h.03c.57-1,1.46-1.5,2.69-1.5.54,0,1,.07,1.36.22s.66.36.88.62.38.58.47.95.14.78.14,1.22v5.44h-1.36v-5.6c0-.51-.15-.92-.45-1.22s-.71-.45-1.23-.45c-.42,0-.78.06-1.08.19s-.56.31-.76.54c-.2.24-.35.51-.46.82-.1.31-.15.66-.15,1.03v4.67h-1.36v-8.27h1.28v.03h0Z"/>
    <path class="st17" d="M192.41,84.4c.13.21.3.37.5.5.21.12.44.21.7.26s.53.08.81.08c.21,0,.44-.02.67-.05.23-.03.45-.09.65-.18.2-.08.36-.21.49-.38s.19-.38.19-.63c0-.35-.13-.62-.4-.8-.27-.18-.6-.33-1-.44s-.84-.21-1.3-.3c-.47-.09-.9-.22-1.3-.38s-.73-.4-1-.7c-.27-.3-.4-.71-.4-1.25,0-.42.09-.77.28-1.07s.43-.54.72-.73.62-.32.99-.42.73-.14,1.1-.14c.47,0,.9.04,1.3.12s.74.22,1.05.42.55.46.73.8c.18.34.29.75.32,1.26h-1.36c-.02-.27-.09-.49-.21-.66-.12-.18-.27-.32-.45-.42-.18-.11-.38-.18-.6-.23s-.44-.07-.66-.07c-.2,0-.41.02-.62.05s-.4.09-.57.17c-.17.08-.31.19-.42.32s-.16.31-.16.52c0,.23.08.43.25.58s.38.28.63.38c.26.1.54.19.86.26s.64.14.96.22c.34.07.68.17,1,.27s.61.25.86.42c.25.18.45.4.61.66.15.27.23.6.23.99,0,.5-.1.92-.31,1.25-.21.33-.48.6-.82.8-.34.2-.71.34-1.14.42s-.84.12-1.26.12c-.46,0-.9-.05-1.31-.14-.42-.1-.78-.25-1.1-.47s-.58-.51-.77-.86-.3-.79-.32-1.31h1.36c0,.3.08.55.21.76h0Z"/>
    <path class="st17" d="M202.9,77.97v1.2h-1.65v5.14c0,.16,0,.29.04.38.03.1.08.17.15.22.07.05.18.09.31.1s.31.02.52.02h.62v1.2h-1.04c-.35,0-.65-.02-.9-.07s-.45-.14-.61-.26-.27-.31-.34-.54c-.07-.23-.11-.54-.11-.93v-5.26h-1.41v-1.2h1.41v-2.48h1.36v2.48h1.65Z"/>
    <path class="st17" d="M211.74,86.21c-.24.14-.56.21-.98.21-.35,0-.63-.1-.84-.3s-.31-.52-.31-.97c-.37.45-.81.77-1.3.97s-1.03.3-1.61.3c-.37,0-.73-.04-1.06-.13s-.63-.22-.87-.4c-.25-.18-.44-.42-.58-.71s-.22-.65-.22-1.06c0-.47.08-.85.24-1.15s.37-.54.63-.73.56-.33.9-.42c.34-.1.68-.18,1.03-.24.37-.07.73-.13,1.06-.17s.63-.09.89-.16.46-.17.61-.3c.15-.13.22-.33.22-.58,0-.3-.06-.54-.17-.72s-.26-.32-.43-.42c-.18-.1-.37-.16-.59-.19s-.43-.05-.65-.05c-.58,0-1.06.11-1.44.33s-.59.63-.62,1.24h-1.36c.02-.51.13-.94.32-1.3.19-.35.45-.64.77-.86s.69-.38,1.1-.47c.41-.1.85-.14,1.32-.14.37,0,.74.03,1.11.08s.7.16,1,.33.54.4.72.69c.18.3.27.69.27,1.17v4.25c0,.32.02.55.06.7.04.15.16.22.38.22.12,0,.26-.02.42-.06v1.06h0l-.02-.02h0ZM209.53,81.97c-.17.13-.4.22-.67.28-.28.06-.57.11-.87.14-.3.04-.61.08-.92.13-.31.05-.59.12-.83.23-.25.11-.45.26-.6.45-.15.2-.23.46-.23.8,0,.22.04.41.14.57.09.15.21.28.35.37.14.1.31.17.5.21s.4.06.61.06c.45,0,.83-.06,1.15-.18s.58-.28.78-.46.35-.39.45-.6c.1-.22.14-.42.14-.61v-1.39h0Z"/>
    <path class="st17" d="M214.44,74.82v11.42h-1.36v-11.42h1.36Z"/>
    <path class="st17" d="M217.99,74.82v11.42h-1.36v-11.42h1.36Z"/>
    <path class="st17" d="M224.36,80.41c.17-.53.43-.99.77-1.38.34-.39.76-.7,1.26-.92s1.08-.34,1.73-.34,1.24.11,1.74.34.91.53,1.26.92.6.85.77,1.38.26,1.1.26,1.7-.09,1.17-.26,1.7c-.17.52-.43.98-.77,1.37-.34.39-.76.69-1.26.91s-1.07.33-1.74.33-1.23-.11-1.73-.33-.92-.52-1.26-.91c-.34-.39-.6-.85-.77-1.37-.17-.52-.26-1.09-.26-1.7s.09-1.18.26-1.7ZM225.74,83.45c.13.39.32.71.55.98.23.26.51.46.82.6s.65.21,1,.21.69-.07,1-.21c.32-.14.59-.34.82-.6.23-.26.42-.59.55-.98s.2-.83.2-1.34-.07-.95-.2-1.34-.32-.72-.55-.98c-.24-.27-.51-.47-.82-.61-.31-.14-.65-.21-1-.21s-.68.07-1,.21c-.31.14-.59.34-.82.61-.24.27-.42.6-.55.98s-.2.83-.2,1.34.07.95.2,1.34Z"/>
    <path class="st17" d="M235.01,77.97v1.31h.03c.57-1,1.46-1.5,2.69-1.5.54,0,1,.07,1.36.22s.66.36.88.62.38.58.47.95.14.78.14,1.22v5.44h-1.36v-5.6c0-.51-.15-.92-.45-1.22s-.71-.45-1.23-.45c-.42,0-.78.06-1.08.19s-.56.31-.76.54c-.2.24-.35.51-.46.82-.1.31-.15.66-.15,1.03v4.67h-1.36v-8.27h1.28v.03h0Z"/>
    <path class="st17" d="M247.57,79.41c-.34-.29-.8-.43-1.38-.43-.49,0-.9.09-1.23.27s-.6.42-.79.72c-.2.3-.34.64-.42,1.03-.09.39-.13.79-.13,1.21,0,.38.04.76.14,1.12.09.36.23.69.42.97s.44.51.75.68.68.26,1.1.26c.67,0,1.2-.18,1.58-.53s.61-.85.7-1.49h1.39c-.15,1.02-.53,1.81-1.14,2.37-.61.56-1.45.83-2.5.83-.63,0-1.19-.1-1.67-.3s-.89-.49-1.22-.86-.57-.82-.74-1.34-.25-1.08-.25-1.7.08-1.2.24-1.74.4-1.01.73-1.41c.32-.4.73-.71,1.22-.94s1.06-.34,1.71-.34c.47,0,.91.06,1.32.17s.77.29,1.09.52c.31.24.57.53.78.89s.33.78.38,1.27h-1.41c-.11-.52-.33-.93-.67-1.22h0Z"/>
    <path class="st17" d="M257.08,85.72c-.62.47-1.4.7-2.34.7-.66,0-1.24-.11-1.72-.32-.49-.21-.89-.51-1.22-.9-.33-.38-.58-.84-.74-1.38s-.26-1.11-.28-1.74c0-.63.1-1.21.29-1.73.19-.52.46-.98.81-1.36s.76-.68,1.23-.9c.48-.21.99-.32,1.56-.32.74,0,1.35.15,1.83.46s.88.69,1.17,1.16.5.98.61,1.54.16,1.08.14,1.58h-6.19c0,.36.03.71.13,1.03.1.33.25.61.46.86s.49.45.82.6.72.22,1.17.22c.58,0,1.05-.13,1.42-.4.37-.27.61-.67.73-1.22h1.34c-.18.93-.58,1.63-1.2,2.1h0l-.02.02h0ZM256.75,80.4c-.12-.29-.29-.54-.5-.74s-.45-.37-.74-.5c-.28-.12-.6-.18-.94-.18s-.67.06-.95.18-.52.29-.73.5c-.2.21-.36.46-.48.74s-.19.58-.21.9h4.75c-.02-.32-.09-.62-.22-.91h.02Z"/>
    <path class="st17" d="M261.89,84.47v1.78h-1.78v-1.78h1.78Z"/>
    <path class="st17" d="M270.54,74.82l6.02,9.26h.03v-9.26h1.44v11.42h-1.66l-5.97-9.17h-.03v9.17h-1.44v-11.42h1.62,0Z"/>
    <path class="st17" d="M280.07,80.41c.17-.53.43-.99.77-1.38s.76-.7,1.26-.92,1.08-.34,1.73-.34,1.24.11,1.74.34.92.53,1.26.92.6.85.77,1.38c.17.53.26,1.1.26,1.7s-.08,1.17-.26,1.7c-.17.52-.43.98-.77,1.37s-.76.69-1.26.91-1.08.33-1.74.33-1.23-.11-1.73-.33-.92-.52-1.26-.91c-.34-.39-.6-.85-.77-1.37-.17-.52-.26-1.09-.26-1.7s.08-1.18.26-1.7ZM281.45,83.45c.13.39.32.71.55.98.23.26.51.46.82.6s.65.21,1,.21.69-.07,1-.21c.32-.14.59-.34.82-.6s.42-.59.55-.98.2-.83.2-1.34-.07-.95-.2-1.34-.32-.72-.55-.98c-.23-.27-.51-.47-.82-.61s-.65-.21-1-.21-.68.07-1,.21c-.31.14-.59.34-.82.61-.23.27-.42.6-.55.98s-.2.83-.2,1.34.07.95.2,1.34Z"/>
    <path class="st17" d="M107.71,98.61c-.34-.29-.8-.43-1.38-.43-.49,0-.9.09-1.23.27s-.6.42-.79.72c-.2.3-.34.64-.42,1.03s-.13.79-.13,1.21c0,.38.04.76.14,1.12.09.36.23.69.42.97.19.28.44.51.75.68s.68.26,1.1.26c.67,0,1.2-.18,1.58-.53s.61-.85.7-1.49h1.39c-.15,1.02-.53,1.81-1.14,2.37-.61.56-1.45.83-2.5.83-.63,0-1.19-.1-1.67-.3s-.89-.49-1.22-.86-.57-.82-.74-1.34-.25-1.08-.25-1.7.08-1.2.24-1.74c.16-.54.4-1.01.73-1.41.32-.4.73-.71,1.22-.94s1.06-.34,1.71-.34c.47,0,.91.06,1.32.17s.77.29,1.09.52c.31.24.57.53.78.89s.33.78.38,1.27h-1.41c-.11-.52-.33-.93-.67-1.22h0Z"/>
    <path class="st17" d="M111.16,99.61c.17-.53.43-.99.77-1.38s.76-.7,1.26-.92,1.08-.34,1.73-.34,1.24.11,1.74.34.92.53,1.26.92.6.85.77,1.38.26,1.1.26,1.7-.08,1.17-.26,1.7c-.17.52-.43.98-.77,1.37s-.76.69-1.26.91-1.07.33-1.74.33-1.23-.11-1.73-.33-.92-.52-1.26-.91c-.34-.39-.6-.85-.77-1.37-.17-.52-.26-1.09-.26-1.7s.08-1.18.26-1.7ZM112.54,102.65c.13.39.32.71.55.98.23.26.51.46.82.6.32.14.65.21,1,.21s.69-.07,1-.21c.32-.14.59-.34.82-.6s.42-.59.55-.98.2-.83.2-1.34-.07-.95-.2-1.34-.32-.72-.55-.98c-.24-.27-.51-.47-.82-.61s-.65-.21-1-.21-.68.07-1,.21c-.31.14-.59.34-.82.61-.24.27-.42.6-.55.98s-.2.83-.2,1.34.07.95.2,1.34Z"/>
    <path class="st17" d="M126.57,105.44v-1.12h-.03c-.22.46-.58.79-1.06.99-.48.2-1.01.3-1.58.3-.64,0-1.2-.12-1.67-.35s-.87-.55-1.18-.94-.55-.85-.71-1.38-.24-1.08-.24-1.66.08-1.14.23-1.66c.15-.52.39-.98.7-1.37s.71-.7,1.18-.93,1.03-.34,1.66-.34c.21,0,.44.02.69.06s.49.11.74.22.48.23.7.4c.22.17.4.37.55.62h.03v-4.26h1.36v11.42s-1.37,0-1.37,0ZM121.68,102.51c.1.37.26.69.46.98s.47.52.8.69c.32.17.71.26,1.14.26s.85-.09,1.17-.27.58-.42.78-.71.35-.63.44-1c.09-.37.14-.75.14-1.14s-.05-.8-.14-1.18-.25-.71-.46-1-.48-.52-.81-.7-.73-.26-1.2-.26-.85.09-1.17.27-.58.42-.77.72c-.19.3-.33.64-.42,1.02s-.13.78-.13,1.18.05.76.15,1.13h.02,0Z"/>
    <path class="st17" d="M135.88,104.92c-.62.47-1.4.7-2.34.7-.66,0-1.24-.11-1.72-.32-.49-.21-.89-.51-1.22-.9-.33-.38-.58-.84-.74-1.38s-.26-1.11-.28-1.74c0-.63.1-1.21.29-1.73.19-.52.46-.98.81-1.36s.76-.68,1.23-.9c.48-.21.99-.32,1.56-.32.74,0,1.35.15,1.83.46s.88.69,1.17,1.16.5.98.61,1.54.16,1.08.14,1.58h-6.19c0,.36.03.71.13,1.03.1.33.25.61.46.86s.49.45.82.6.72.22,1.17.22c.58,0,1.05-.13,1.42-.4.37-.27.61-.67.73-1.22h1.34c-.18.93-.58,1.63-1.2,2.1h0l-.02.02h0ZM135.55,99.6c-.12-.29-.29-.54-.5-.74s-.45-.37-.74-.5c-.28-.12-.6-.18-.94-.18s-.67.06-.95.18-.52.29-.73.5c-.2.21-.36.46-.48.74s-.19.58-.21.9h4.75c-.02-.32-.09-.62-.22-.91h.02Z"/>
    <path class="st17" d="M144.3,97.17v1.74h.03c.33-.67.74-1.17,1.22-1.49s1.09-.47,1.82-.45v1.44c-.54,0-1.01.07-1.39.22s-.69.37-.93.66c-.23.29-.4.64-.51,1.05s-.16.88-.16,1.42v3.68h-1.36v-8.27h1.28,0Z"/>
    <path class="st17" d="M153.96,104.92c-.62.47-1.4.7-2.34.7-.66,0-1.24-.11-1.72-.32-.49-.21-.89-.51-1.22-.9-.33-.38-.58-.84-.74-1.38s-.26-1.11-.28-1.74c0-.63.1-1.21.29-1.73.19-.52.46-.98.81-1.36s.76-.68,1.23-.9c.48-.21.99-.32,1.56-.32.74,0,1.35.15,1.83.46s.88.69,1.17,1.16.5.98.61,1.54.16,1.08.14,1.58h-6.19c0,.36.03.71.13,1.03.1.33.25.61.46.86s.49.45.82.6.72.22,1.17.22c.58,0,1.05-.13,1.42-.4.37-.27.61-.67.73-1.22h1.34c-.18.93-.58,1.63-1.2,2.1h0l-.02.02h0ZM153.63,99.6c-.12-.29-.29-.54-.5-.74s-.45-.37-.74-.5c-.28-.12-.6-.18-.94-.18s-.67.06-.95.18-.52.29-.73.5c-.2.21-.36.46-.48.74s-.19.58-.21.9h4.75c-.02-.32-.09-.62-.22-.91h.02Z"/>
    <path class="st17" d="M162.73,108.6v-4.27h-.03c-.22.46-.58.79-1.06.99s-1.01.3-1.58.3c-.64,0-1.2-.12-1.67-.35s-.87-.55-1.18-.94-.55-.85-.71-1.38-.24-1.08-.24-1.66.08-1.14.23-1.66c.15-.52.39-.98.7-1.37s.71-.7,1.18-.93,1.03-.34,1.66-.34c.21,0,.44.02.69.06.24.04.49.11.74.22s.48.23.7.4.4.37.55.62h.03v-1.1h1.36v11.43h-1.36v-.02h0ZM157.84,102.51c.1.37.26.69.46.98s.48.52.8.69c.32.17.71.26,1.14.26s.85-.09,1.17-.27c.32-.18.58-.42.78-.71s.35-.63.44-1,.14-.75.14-1.14-.05-.8-.14-1.18-.25-.71-.46-1-.48-.52-.81-.7-.73-.26-1.2-.26-.85.09-1.17.27c-.32.18-.58.42-.77.72s-.33.64-.42,1.02-.13.78-.13,1.18.05.76.15,1.13h.02Z"/>
    <path class="st17" d="M171.75,105.44v-1.31h-.03c-.29.51-.66.89-1.1,1.13-.45.24-.98.36-1.58.36-.54,0-1-.07-1.36-.22-.36-.14-.66-.35-.88-.62-.22-.27-.38-.58-.47-.95-.09-.37-.14-.78-.14-1.22v-5.44h1.36v5.6c0,.51.15.92.45,1.22s.71.45,1.23.45c.42,0,.78-.06,1.08-.19s.56-.31.76-.54.35-.51.46-.82c.1-.31.15-.66.15-1.03v-4.67h1.36v8.27h-1.28v-.02h0Z"/>
    <path class="st17" d="M175.16,95.68v-1.66h1.36v1.66h-1.36ZM176.52,97.17v8.27h-1.36v-8.27h1.36Z"/>
    <path class="st17" d="M179.86,97.17v1.74h.03c.33-.67.74-1.17,1.22-1.49s1.09-.47,1.82-.45v1.44c-.54,0-1.01.07-1.39.22s-.69.37-.93.66c-.23.29-.4.64-.51,1.05s-.16.88-.16,1.42v3.68h-1.36v-8.27h1.28,0Z"/>
    <path class="st17" d="M189.53,104.92c-.62.47-1.4.7-2.34.7-.66,0-1.24-.11-1.72-.32-.49-.21-.89-.51-1.22-.9-.33-.38-.58-.84-.74-1.38s-.26-1.11-.28-1.74c0-.63.1-1.21.29-1.73.19-.52.46-.98.81-1.36s.76-.68,1.23-.9c.48-.21.99-.32,1.56-.32.74,0,1.35.15,1.83.46s.88.69,1.17,1.16.5.98.61,1.54.16,1.08.14,1.58h-6.19c0,.36.03.71.13,1.03.1.33.25.61.46.86s.49.45.82.6.72.22,1.17.22c.58,0,1.05-.13,1.42-.4.37-.27.61-.67.73-1.22h1.34c-.18.93-.58,1.63-1.2,2.1h0l-.02.02h0ZM189.2,99.6c-.12-.29-.29-.54-.5-.74s-.45-.37-.74-.5c-.28-.12-.6-.18-.94-.18s-.67.06-.95.18-.52.29-.73.5c-.2.21-.36.46-.48.74s-.19.58-.21.9h4.75c-.02-.32-.09-.62-.22-.91h.02Z"/>
    <path class="st17" d="M198.3,105.44v-1.12h-.03c-.22.46-.58.79-1.06.99s-1.01.3-1.58.3c-.64,0-1.2-.12-1.67-.35s-.87-.55-1.18-.94-.55-.85-.71-1.38-.24-1.08-.24-1.66.08-1.14.23-1.66c.15-.52.39-.98.7-1.37s.71-.7,1.18-.93,1.03-.34,1.66-.34c.21,0,.44.02.69.06.24.04.49.11.74.22s.48.23.7.4.4.37.55.62h.03v-4.26h1.36v11.42s-1.37,0-1.37,0ZM193.41,102.51c.1.37.26.69.46.98s.48.52.8.69c.32.17.71.26,1.14.26s.85-.09,1.17-.27c.32-.18.58-.42.78-.71s.35-.63.44-1,.14-.75.14-1.14-.05-.8-.14-1.18-.25-.71-.46-1-.48-.52-.81-.7-.73-.26-1.2-.26-.85.09-1.17.27c-.32.18-.58.42-.77.72s-.33.64-.42,1.02-.13.78-.13,1.18.05.76.15,1.13h.02Z"/>
    <path class="st17" d="M203.83,103.67v1.78h-1.78v-1.78h1.78Z"/>
  </g>
  <g>
    <path class="st3" d="M165.33,425.59c-8.33-9.73-18.72-24.07-26.93-43.24-3.72-8.69-6.41-17.01-8.36-24.7"/>
    <path class="st2" d="M131.35,362.89l-9.38,8.49-.31-.32,3.57-18.63c.17-6.29.35-12.57.52-18.86,2.48,5.78,4.96,11.55,7.44,17.33l10.19,16-.11.4-11.91-4.42h0Z"/>
  </g>
  <g>
    <path class="st4" d="M314.74,30.31c15.01-3.15,36.21-6.36,61.8-6.33,13.69.01,26.11.95,36.99,2.31"/>
    <path class="st2" d="M408.18,25.66l-4.81-11.7.4-.18,16.32,9.66c5.86,2.29,11.71,4.58,17.57,6.88-6.28.38-12.55.75-18.83,1.13l-18.5,4.17-.34-.24,8.19-9.71h0Z"/>
  </g>
  <g>
    <path class="st6" d="M599.79,126.58c6.07,9.56,13.36,22.48,20.05,38.49,3.26,7.8,5.91,15.21,8.08,22.07"/>
    <path class="st2" d="M626.24,182.02l8.68-9.2.33.29-2.08,18.85c.33,6.28.65,12.56.97,18.84-2.93-5.56-5.86-11.13-8.79-16.69l-11.42-15.14.08-.4,12.22,3.46h.01Z"/>
  </g>
  <g>
    <path class="st1" d="M630.77,342.18c-1.71,12.2-5.44,28.81-14.05,46.92-3.74,7.87-7.84,14.84-11.97,20.95"/>
    <path class="st2" d="M607.77,405.57l12.58,1.38-.03.44-16.3,9.7c-4.82,4.04-9.63,8.08-14.45,12.12,2.68-5.69,5.35-11.38,8.03-17.07l5.21-18.24.37-.18,4.6,11.84h-.01Z"/>
  </g>
  <g>
    <path class="st5" d="M436.66,524.5c-15.01,2.71-36.21,5.46-61.8,5.43-13.65-.01-26.04-.81-36.9-1.97"/>
    <path class="st2" d="M343.32,528.5l5.07,11.59-.4.19-16.53-9.3c-5.9-2.16-11.81-4.32-17.71-6.49,6.27-.52,12.53-1.03,18.8-1.55l18.4-4.58.34.23-7.97,9.89h0v.02h0Z"/>
  </g>
  <g>
    <rect class="st19" x="321.57" y="223.22" width="107.08" height="103.55" rx="5.58" ry="5.58"/>
    <g>
      <polygon class="st7" points="393.03 238.86 375.11 249.24 384.07 254.41 392.98 249.29 401.99 254.41 401.96 264.7 375.18 280.17 366.17 275.02 366.19 285.32 375.18 290.52 410.92 269.82 410.84 249.27 393.03 238.86"/>
      <polygon class="st7" points="339.31 269.88 357.25 280.22 357.25 269.87 348.36 264.72 348.29 254.35 357.22 249.23 384.01 264.69 384.05 275.07 392.95 269.9 392.96 259.52 357.17 238.91 339.42 249.25 339.31 269.88"/>
      <polygon class="st7" points="393.02 300.9 393 280.19 384.04 285.37 384.02 295.65 375.08 300.89 366.17 295.72 366.17 264.79 375.14 259.56 366.21 254.44 357.21 259.62 357.26 300.92 375.1 311.12 393.02 300.9"/>
    </g>
  </g>
  <rect class="st0" x="443.7" y="1.5" width="225.08" height="118.08" rx="18.58" ry="18.58"/>
  <g class="st14">
    <g class="st14">
      <g class="st14">
        <text class="st16" transform="translate(454.89 28.83)"><tspan x="0" y="0">2. Widget goes live</tspan></text>
      </g>
    </g>
    <g class="st14">
      <g class="st14">
        <text class="st11" transform="translate(454.89 67.04)"><tspan x="0" y="0">The chat bubble appears on</tspan></text>
      </g>
    </g>
    <g class="st14">
      <g class="st14">
        <text class="st11" transform="translate(454.89 86.25)"><tspan x="0" y="0">your site instantl</tspan></text>
      </g>
    </g>
    <g class="st14">
      <g class="st14">
        <text class="st12" transform="translate(571.95 86.25)"><tspan x="0" y="0">y</tspan></text>
      </g>
    </g>
    <g class="st14">
      <g class="st14">
        <text class="st11" transform="translate(578.76 86.25)"><tspan x="0" y="0">, styled to</tspan></text>
      </g>
    </g>
    <g class="st14">
      <g class="st14">
        <text class="st11" transform="translate(454.89 105.44)"><tspan x="0" y="0">your brand.</tspan></text>
      </g>
    </g>
  </g>
  <rect class="st0" x="1.5" y="216.13" width="225.08" height="118.08" rx="18.58" ry="18.58"/>
  <rect class="st0" x="85.19" y="433.82" width="225.08" height="118.08" rx="18.58" ry="18.58"/>
  <rect class="st0" x="443.7" y="433.82" width="225.08" height="118.08" rx="18.58" ry="18.58"/>
  <rect class="st0" x="528.08" y="216.13" width="225.08" height="118.08" rx="18.58" ry="18.58"/>
  <g class="st14">
    <g class="st14">
      <g class="st14">
        <text class="st15" transform="translate(22.32 254.09)"><tspan x="0" y="0">6. Hando</tspan></text>
      </g>
    </g>
    <g class="st14">
      <g class="st14">
        <text class="st10" transform="translate(100.74 254.09)"><tspan x="0" y="0">f</tspan></text>
      </g>
    </g>
    <g class="st14">
      <g class="st14">
        <text class="st15" transform="translate(106.56 254.09)"><tspan x="0" y="0">f &amp; log</tspan></text>
      </g>
    </g>
    <g class="st14">
      <g class="st14">
        <text class="st11" transform="translate(22.32 292.3)"><tspan x="0" y="0">Escalates to a human with</tspan></text>
      </g>
    </g>
    <g class="st14">
      <g class="st14">
        <text class="st11" transform="translate(22.32 311.5)"><tspan x="0" y="0">full context if needed.</tspan></text>
      </g>
    </g>
  </g>
  <g class="st14">
    <g class="st14">
      <g class="st14">
        <text class="st15" transform="translate(540.59 242.16)"><tspan x="0" y="0">3. Customer asks</tspan></text>
      </g>
    </g>
    <g class="st14">
      <g class="st14">
        <text class="st11" transform="translate(540.59 282.96)"><tspan x="0" y="0">O</tspan></text>
      </g>
    </g>
    <g class="st14">
      <g class="st14">
        <text class="st13" transform="translate(552.75 282.96)"><tspan x="0" y="0">r</tspan></text>
      </g>
    </g>
    <g class="st14">
      <g class="st14">
        <text class="st11" transform="translate(557.79 282.96)"><tspan x="0" y="0">ders,</tspan></text>
      </g>
    </g>
    <g class="st14">
      <g class="st14">
        <text class="st13" transform="translate(598.1 282.96)"><tspan x="0" y="0">r</tspan></text>
      </g>
    </g>
    <g class="st14">
      <g class="st14">
        <text class="st11" transform="translate(603.14 282.96)"><tspan x="0" y="0">etu</tspan></text>
      </g>
    </g>
    <g class="st14">
      <g class="st14">
        <text class="st8" transform="translate(625.66 282.96)"><tspan x="0" y="0">r</tspan></text>
      </g>
    </g>
    <g class="st14">
      <g class="st14">
        <text class="st11" transform="translate(631.28 282.96)"><tspan x="0" y="0">ns, p</tspan></text>
      </g>
    </g>
    <g class="st14">
      <g class="st14">
        <text class="st13" transform="translate(666.56 282.96)"><tspan x="0" y="0">r</tspan></text>
      </g>
    </g>
    <g class="st14">
      <g class="st14">
        <text class="st11" transform="translate(671.6 282.96)"><tspan x="0" y="0">oduct</tspan></text>
      </g>
    </g>
    <g class="st14">
      <g class="st14">
        <text class="st11" transform="translate(540.59 302.16)"><tspan x="0" y="0">details, shipping, and</tspan></text>
      </g>
    </g>
    <g class="st14">
      <g class="st14">
        <text class="st11" transform="translate(540.59 321.36)"><tspan x="0" y="0">policies.</tspan></text>
      </g>
    </g>
  </g>
  <g class="st14">
    <g class="st14">
      <g class="st14">
        <text class="st15" transform="translate(456.44 459.99)"><tspan x="0" y="0">4. Understands &amp; finds</tspan></text>
      </g>
    </g>
    <g class="st14">
      <g class="st14">
        <text class="st15" transform="translate(456.44 482.17)"><tspan x="0" y="0">sou</tspan></text>
      </g>
    </g>
    <g class="st14">
      <g class="st14">
        <text class="st9" transform="translate(488.63 482.17)"><tspan x="0" y="0">r</tspan></text>
      </g>
    </g>
    <g class="st14">
      <g class="st14">
        <text class="st15" transform="translate(495.48 482.17)"><tspan x="0" y="0">ces</tspan></text>
      </g>
    </g>
    <g class="st14">
      <g class="st14">
        <text class="st11" transform="translate(456.44 520.38)"><tspan x="0" y="0">Retrieves answers with</tspan></text>
      </g>
    </g>
    <g class="st14">
      <g class="st14">
        <text class="st11" transform="translate(456.44 539.58)"><tspan x="0" y="0">citations.</tspan></text>
      </g>
    </g>
  </g>
  <g class="st14">
    <g class="st14">
      <g class="st14">
        <text class="st15" transform="translate(106.32 470.44)"><tspan x="0" y="0">5. With gua</tspan></text>
      </g>
    </g>
    <g class="st14">
      <g class="st14">
        <text class="st9" transform="translate(204.57 470.44)"><tspan x="0" y="0">r</tspan></text>
      </g>
    </g>
    <g class="st14">
      <g class="st14">
        <text class="st15" transform="translate(211.42 470.44)"><tspan x="0" y="0">drails</tspan></text>
      </g>
    </g>
    <g class="st14">
      <g class="st14">
        <text class="st11" transform="translate(106.32 508.65)"><tspan x="0" y="0">Actions within your rules</tspan></text>
      </g>
    </g>
    <g class="st14">
      <g class="st14">
        <text class="st11" transform="translate(106.32 527.85)"><tspan x="0" y="0">and</tspan></text>
      </g>
    </g>
    <g class="st14">
      <g class="st14">
        <text class="st13" transform="translate(137.74 527.85)"><tspan x="0" y="0">r</tspan></text>
      </g>
    </g>
    <g class="st14">
      <g class="st14">
        <text class="st11" transform="translate(142.78 527.85)"><tspan x="0" y="0">equi</tspan></text>
      </g>
    </g>
    <g class="st14">
      <g class="st14">
        <text class="st13" transform="translate(173.31 527.85)"><tspan x="0" y="0">r</tspan></text>
      </g>
    </g>
    <g class="st14">
      <g class="st14">
        <text class="st11" transform="translate(178.35 527.85)"><tspan x="0" y="0">ements.</tspan></text>
      </g>
    </g>
  </g>
</svg>